<svg width="12" height="12" viewBox="0 0 12 12" fill="none" xmlns="http://www.w3.org/2000/svg">
<g clip-path="url(#clip0_430_1881)">
<path d="M11.3999 0.60856C11.3206 0.5291 11.2264 0.466059 11.1227 0.423047C11.019 0.380034 10.9079 0.357894 10.7956 0.357894C10.6834 0.357894 10.5722 0.380034 10.4685 0.423047C10.3648 0.466059 10.2706 0.5291 10.1913 0.60856L5.99991 4.79142L1.80848 0.599989C1.72913 0.520633 1.63492 0.457684 1.53124 0.414737C1.42755 0.37179 1.31642 0.349686 1.2042 0.349686C1.09197 0.349686 0.980845 0.37179 0.877161 0.414737C0.773478 0.457684 0.679268 0.520633 0.599913 0.599989C0.520557 0.679345 0.457608 0.773554 0.414661 0.877237C0.371714 0.980921 0.349609 1.09205 0.349609 1.20427C0.349609 1.3165 0.371714 1.42763 0.414661 1.53131C0.457608 1.635 0.520557 1.7292 0.599913 1.80856L4.79134 5.99999L0.599913 10.1914C0.520557 10.2708 0.457608 10.365 0.414661 10.4687C0.371714 10.5723 0.349609 10.6835 0.349609 10.7957C0.349609 10.9079 0.371714 11.0191 0.414661 11.1227C0.457608 11.2264 0.520557 11.3206 0.599913 11.4C0.679268 11.4793 0.773478 11.5423 0.877161 11.5852C0.980845 11.6282 1.09197 11.6503 1.2042 11.6503C1.31642 11.6503 1.42755 11.6282 1.53124 11.5852C1.63492 11.5423 1.72913 11.4793 1.80848 11.4L5.99991 7.20856L10.1913 11.4C10.2707 11.4793 10.3649 11.5423 10.4686 11.5852C10.5723 11.6282 10.6834 11.6503 10.7956 11.6503C10.9079 11.6503 11.019 11.6282 11.1227 11.5852C11.2263 11.5423 11.3206 11.4793 11.3999 11.4C11.4793 11.3206 11.5422 11.2264 11.5852 11.1227C11.6281 11.0191 11.6502 10.9079 11.6502 10.7957C11.6502 10.6835 11.6281 10.5723 11.5852 10.4687C11.5422 10.365 11.4793 10.2708 11.3999 10.1914L7.20848 5.99999L11.3999 1.80856C11.7256 1.48285 11.7256 0.934275 11.3999 0.60856Z" fill="#505050"/>
</g>
<defs>
<clipPath id="clip0_430_1881">
<rect width="12" height="12" fill="white"/>
</clipPath>
</defs>
</svg>
