<svg width="76" height="76" viewBox="0 0 76 76" fill="none" xmlns="http://www.w3.org/2000/svg">
<path d="M71.25 38C71.252 38.8064 71.0452 39.5996 70.6498 40.3024C70.2545 41.0052 69.6839 41.5938 68.9937 42.0108L26.22 68.1774C25.4988 68.6189 24.6729 68.86 23.8274 68.8757C22.982 68.8913 22.1476 68.681 21.4106 68.2664C20.6806 67.8583 20.0725 67.2631 19.6489 66.542C19.2252 65.8209 19.0012 65 19 64.1636V11.8364C19.0012 11.0001 19.2252 10.1792 19.6489 9.45807C20.0725 8.73699 20.6806 8.14176 21.4106 7.73361C22.1476 7.31902 22.982 7.10869 23.8274 7.12435C24.6729 7.14001 25.4988 7.38108 26.22 7.82267L68.9937 33.9892C69.6839 34.4063 70.2545 34.9948 70.6498 35.6976C71.0452 36.4004 71.252 37.1936 71.25 38Z" fill="black" fill-opacity="0.5"/>
</svg>
