<svg width="18" height="18" viewBox="0 0 18 18" fill="none" xmlns="http://www.w3.org/2000/svg">
<g clip-path="url(#clip0_333_1485)">
<path d="M7.55829 13.1445L8.74899 14.1732C9.00999 14.3991 9.03969 14.7951 8.81649 15.0588C8.76353 15.1213 8.69869 15.1727 8.62571 15.21C8.55274 15.2473 8.47309 15.2698 8.39139 15.276C8.30968 15.2823 8.22754 15.2723 8.14973 15.2466C8.07191 15.2209 7.99998 15.18 7.93809 15.1263L6.52959 13.9095C6.46116 13.8503 6.40628 13.777 6.3687 13.6947C6.33112 13.6124 6.31171 13.523 6.31179 13.4325V7.1442L1.05399 1.0395C0.702086 0.6327 0.990086 0 1.52469 0H16.4755C17.0101 0 17.2963 0.6336 16.9462 1.0395L11.6812 7.1451V17.3718C11.6812 17.7192 11.4022 18 11.0584 18C10.9762 17.9996 10.895 17.9831 10.8192 17.9514C10.7435 17.9196 10.6747 17.8732 10.6169 17.8149C10.559 17.7566 10.5133 17.6874 10.4822 17.6114C10.4511 17.5353 10.4352 17.4539 10.4356 17.3718V6.9102C10.4354 6.75888 10.4897 6.61257 10.5886 6.498L15.1093 1.2555H2.88909L7.40529 6.498C7.50413 6.61257 7.55844 6.75888 7.55829 6.9102V13.1445Z" fill="#415FFF"/>
</g>
<defs>
<clipPath id="clip0_333_1485">
<rect width="18" height="18" fill="white"/>
</clipPath>
</defs>
</svg>
